<?xml version="1.0" encoding="UTF-8"?><svg xmlns="http://www.w3.org/2000/svg" xmlns:xlink="http://www.w3.org/1999/xlink" height="347pt" style="width:509px;height:347px;" version="1.1" viewBox="0 0 509 347" width="509pt">
    <defs>
        <filter height="300%" id="f1" width="300%" x="-1" y="-1">
            <feGaussianBlur result="blurOut" stdDeviation="2.0"/>
            <feColorMatrix in="blurOut" result="blurOut2" type="matrix" values="0 0 0 0 0 0 0 0 0 0 0 0 0 0 0 0 0 0 .4 0"/>
            <feOffset dx="4.0" dy="4.0" in="blurOut2" result="blurOut3"/>
            <feBlend in="SourceGraphic" in2="blurOut3" mode="normal"/>
        </filter>
    </defs>
    <g>
        <polygon fill="#FFFFFF" filter="url(#f1)" points="22,24,121,24,128,46.4883,502,46.4883,502,340,22,340,22,24" style="stroke: #000000; stroke-width: 2.0;"/>
        <line style="stroke: #000000; stroke-width: 2.0;" x1="22" x2="128" y1="46.4883" y2="46.4883"/>
        <text fill="#000000" font-family="sans-serif" font-size="14" font-weight="bold" lengthAdjust="spacingAndGlyphs" textLength="93" x="25" y="40.5352">Masters_Proj</text>
        <rect fill="#FEFECE" filter="url(#f1)" height="48" style="stroke: #A80036; stroke-width: 1.5;" width="112" x="38" y="60"/>
        <ellipse cx="53" cy="76" fill="#ADD1B2" rx="11" ry="11" style="stroke: #A80036; stroke-width: 1.0;"/>
        <path d="M55.9731,81.6431 Q55.3921,81.9419 54.7529,82.0913 Q54.1138,82.2407 53.4082,82.2407 Q50.9014,82.2407 49.5815,80.5889 Q48.2617,78.937 48.2617,75.8159 Q48.2617,72.6865 49.5815,71.0347 Q50.9014,69.3828 53.4082,69.3828 Q54.1138,69.3828 54.7612,69.5322 Q55.4087,69.6816 55.9731,69.9805 L55.9731,72.7031 Q55.3423,72.1221 54.7488,71.8523 Q54.1553,71.5825 53.5244,71.5825 Q52.1797,71.5825 51.4949,72.6492 Q50.8101,73.7158 50.8101,75.8159 Q50.8101,77.9077 51.4949,78.9744 Q52.1797,80.041 53.5244,80.041 Q54.1553,80.041 54.7488,79.7712 Q55.3423,79.5015 55.9731,78.9204 Z "/>
        <text fill="#000000" font-family="sans-serif" font-size="12" lengthAdjust="spacingAndGlyphs" textLength="80" x="67" y="80.5352">DecodeFrame</text>
        <line style="stroke: #A80036; stroke-width: 1.5;" x1="39" x2="149" y1="92" y2="92"/>
        <line style="stroke: #A80036; stroke-width: 1.5;" x1="39" x2="149" y1="100" y2="100"/>
        <rect fill="#FEFECE" filter="url(#f1)" height="48" style="stroke: #A80036; stroke-width: 1.5;" width="155" x="185.75" y="60"/>
        <ellipse cx="200.75" cy="76" fill="#ADD1B2" rx="11" ry="11" style="stroke: #A80036; stroke-width: 1.0;"/>
        <path d="M203.7231,81.6431 Q203.1421,81.9419 202.5029,82.0913 Q201.8638,82.2407 201.1582,82.2407 Q198.6514,82.2407 197.3315,80.5889 Q196.0117,78.937 196.0117,75.8159 Q196.0117,72.6865 197.3315,71.0347 Q198.6514,69.3828 201.1582,69.3828 Q201.8638,69.3828 202.5112,69.5322 Q203.1587,69.6816 203.7231,69.9805 L203.7231,72.7031 Q203.0923,72.1221 202.4988,71.8523 Q201.9053,71.5825 201.2744,71.5825 Q199.9297,71.5825 199.2449,72.6492 Q198.5601,73.7158 198.5601,75.8159 Q198.5601,77.9077 199.2449,78.9744 Q199.9297,80.041 201.2744,80.041 Q201.9053,80.041 202.4988,79.7712 Q203.0923,79.5015 203.7231,78.9204 Z "/>
        <text fill="#000000" font-family="sans-serif" font-size="12" lengthAdjust="spacingAndGlyphs" textLength="123" x="214.75" y="80.5352">DirectoryCustomFilter</text>
        <line style="stroke: #A80036; stroke-width: 1.5;" x1="186.75" x2="339.75" y1="92" y2="92"/>
        <line style="stroke: #A80036; stroke-width: 1.5;" x1="186.75" x2="339.75" y1="100" y2="100"/>
        <rect fill="#FEFECE" filter="url(#f1)" height="48" style="stroke: #A80036; stroke-width: 1.5;" width="110" x="376" y="60"/>
        <ellipse cx="391" cy="76" fill="#ADD1B2" rx="11" ry="11" style="stroke: #A80036; stroke-width: 1.0;"/>
        <path d="M393.9731,81.6431 Q393.3921,81.9419 392.7529,82.0913 Q392.1138,82.2407 391.4082,82.2407 Q388.9014,82.2407 387.5815,80.5889 Q386.2617,78.937 386.2617,75.8159 Q386.2617,72.6865 387.5815,71.0347 Q388.9014,69.3828 391.4082,69.3828 Q392.1138,69.3828 392.7612,69.5322 Q393.4087,69.6816 393.9731,69.9805 L393.9731,72.7031 Q393.3423,72.1221 392.7488,71.8523 Q392.1553,71.5825 391.5244,71.5825 Q390.1797,71.5825 389.4949,72.6492 Q388.8101,73.7158 388.8101,75.8159 Q388.8101,77.9077 389.4949,78.9744 Q390.1797,80.041 391.5244,80.041 Q392.1553,80.041 392.7488,79.7712 Q393.3423,79.5015 393.9731,78.9204 Z "/>
        <text fill="#000000" font-family="sans-serif" font-size="12" lengthAdjust="spacingAndGlyphs" textLength="78" x="405" y="80.5352">EncodeFrame</text>
        <line style="stroke: #A80036; stroke-width: 1.5;" x1="377" x2="485" y1="92" y2="92"/>
        <line style="stroke: #A80036; stroke-width: 1.5;" x1="377" x2="485" y1="100" y2="100"/>
        <rect fill="#FEFECE" filter="url(#f1)" height="48" style="stroke: #A80036; stroke-width: 1.5;" width="109" x="39.75" y="168"/>
        <ellipse cx="54.75" cy="184" fill="#ADD1B2" rx="11" ry="11" style="stroke: #A80036; stroke-width: 1.0;"/>
        <path d="M57.7231,189.6431 Q57.1421,189.9419 56.5029,190.0913 Q55.8638,190.2407 55.1582,190.2407 Q52.6514,190.2407 51.3315,188.5889 Q50.0117,186.937 50.0117,183.8159 Q50.0117,180.6865 51.3315,179.0347 Q52.6514,177.3828 55.1582,177.3828 Q55.8638,177.3828 56.5112,177.5322 Q57.1587,177.6816 57.7231,177.9805 L57.7231,180.7031 Q57.0923,180.1221 56.4988,179.8523 Q55.9053,179.5825 55.2744,179.5825 Q53.9297,179.5825 53.2449,180.6492 Q52.5601,181.7158 52.5601,183.8159 Q52.5601,185.9077 53.2449,186.9744 Q53.9297,188.041 55.2744,188.041 Q55.9053,188.041 56.4988,187.7712 Q57.0923,187.5015 57.7231,186.9204 Z "/>
        <text fill="#000000" font-family="sans-serif" font-size="12" lengthAdjust="spacingAndGlyphs" textLength="77" x="68.75" y="188.5352">ExtendedVCS</text>
        <line style="stroke: #A80036; stroke-width: 1.5;" x1="40.75" x2="147.75" y1="200" y2="200"/>
        <line style="stroke: #A80036; stroke-width: 1.5;" x1="40.75" x2="147.75" y1="208" y2="208"/>
        <rect fill="#FEFECE" filter="url(#f1)" height="48" style="stroke: #A80036; stroke-width: 1.5;" width="138" x="200" y="168"/>
        <ellipse cx="215" cy="184" fill="#ADD1B2" rx="11" ry="11" style="stroke: #A80036; stroke-width: 1.0;"/>
        <path d="M217.9731,189.6431 Q217.3921,189.9419 216.7529,190.0913 Q216.1138,190.2407 215.4082,190.2407 Q212.9014,190.2407 211.5815,188.5889 Q210.2617,186.937 210.2617,183.8159 Q210.2617,180.6865 211.5815,179.0347 Q212.9014,177.3828 215.4082,177.3828 Q216.1138,177.3828 216.7612,177.5322 Q217.4087,177.6816 217.9731,177.9805 L217.9731,180.7031 Q217.3423,180.1221 216.7488,179.8523 Q216.1553,179.5825 215.5244,179.5825 Q214.1797,179.5825 213.4949,180.6492 Q212.8101,181.7158 212.8101,183.8159 Q212.8101,185.9077 213.4949,186.9744 Q214.1797,188.041 215.5244,188.041 Q216.1553,188.041 216.7488,187.7712 Q217.3423,187.5015 217.9731,186.9204 Z "/>
        <text fill="#000000" font-family="sans-serif" font-size="12" lengthAdjust="spacingAndGlyphs" textLength="106" x="229" y="188.5352">ImageCustomFilter</text>
        <line style="stroke: #A80036; stroke-width: 1.5;" x1="201" x2="337" y1="200" y2="200"/>
        <line style="stroke: #A80036; stroke-width: 1.5;" x1="201" x2="337" y1="208" y2="208"/>
        <rect fill="#FEFECE" filter="url(#f1)" height="48" style="stroke: #A80036; stroke-width: 1.5;" width="95" x="381.75" y="168"/>
        <ellipse cx="396.75" cy="184" fill="#ADD1B2" rx="11" ry="11" style="stroke: #A80036; stroke-width: 1.0;"/>
        <path d="M399.7231,189.6431 Q399.1421,189.9419 398.5029,190.0913 Q397.8638,190.2407 397.1582,190.2407 Q394.6514,190.2407 393.3315,188.5889 Q392.0117,186.937 392.0117,183.8159 Q392.0117,180.6865 393.3315,179.0347 Q394.6514,177.3828 397.1582,177.3828 Q397.8638,177.3828 398.5112,177.5322 Q399.1587,177.6816 399.7231,177.9805 L399.7231,180.7031 Q399.0923,180.1221 398.4988,179.8523 Q397.9053,179.5825 397.2744,179.5825 Q395.9297,179.5825 395.2449,180.6492 Q394.5601,181.7158 394.5601,183.8159 Q394.5601,185.9077 395.2449,186.9744 Q395.9297,188.041 397.2744,188.041 Q397.9053,188.041 398.4988,187.7712 Q399.0923,187.5015 399.7231,186.9204 Z "/>
        <text fill="#000000" font-family="sans-serif" font-size="12" lengthAdjust="spacingAndGlyphs" textLength="63" x="410.75" y="188.5352">MainFrame</text>
        <line style="stroke: #A80036; stroke-width: 1.5;" x1="382.75" x2="475.75" y1="200" y2="200"/>
        <line style="stroke: #A80036; stroke-width: 1.5;" x1="382.75" x2="475.75" y1="208" y2="208"/>
        <rect fill="#FEFECE" filter="url(#f1)" height="48" style="stroke: #A80036; stroke-width: 1.5;" width="59" x="64.75" y="276"/>
        <ellipse cx="79.75" cy="292" fill="#ADD1B2" rx="11" ry="11" style="stroke: #A80036; stroke-width: 1.0;"/>
        <path d="M82.7231,297.6431 Q82.1421,297.9419 81.5029,298.0913 Q80.8638,298.2407 80.1582,298.2407 Q77.6514,298.2407 76.3315,296.5889 Q75.0117,294.937 75.0117,291.8159 Q75.0117,288.6865 76.3315,287.0347 Q77.6514,285.3828 80.1582,285.3828 Q80.8638,285.3828 81.5112,285.5322 Q82.1587,285.6816 82.7231,285.9805 L82.7231,288.7031 Q82.0923,288.1221 81.4988,287.8523 Q80.9053,287.5825 80.2744,287.5825 Q78.9297,287.5825 78.2449,288.6492 Q77.5601,289.7158 77.5601,291.8159 Q77.5601,293.9077 78.2449,294.9744 Q78.9297,296.041 80.2744,296.041 Q80.9053,296.041 81.4988,295.7712 Q82.0923,295.5015 82.7231,294.9204 Z "/>
        <text fill="#000000" font-family="sans-serif" font-size="12" lengthAdjust="spacingAndGlyphs" textLength="27" x="93.75" y="296.5352">Pixel</text>
        <line style="stroke: #A80036; stroke-width: 1.5;" x1="65.75" x2="122.75" y1="308" y2="308"/>
        <line style="stroke: #A80036; stroke-width: 1.5;" x1="65.75" x2="122.75" y1="316" y2="316"/>
    </g>
</svg>
