<?xml version="1.0" encoding="UTF-8"?><svg xmlns="http://www.w3.org/2000/svg" xmlns:xlink="http://www.w3.org/1999/xlink" height="255pt" style="width:1701px;height:255px;" version="1.1" viewBox="0 0 1701 255" width="1701pt">
    <defs>
        <filter height="300%" id="f1" width="300%" x="-1" y="-1">
            <feGaussianBlur result="blurOut" stdDeviation="2.0"/>
            <feColorMatrix in="blurOut" result="blurOut2" type="matrix" values="0 0 0 0 0 0 0 0 0 0 0 0 0 0 0 0 0 0 .4 0"/>
            <feOffset dx="4.0" dy="4.0" in="blurOut2" result="blurOut3"/>
            <feBlend in="SourceGraphic" in2="blurOut3" mode="normal"/>
        </filter>
    </defs>
    <g>
        <polygon fill="#FFFFFF" filter="url(#f1)" points="22,148,91,148,98,170.4883,309,170.4883,309,248,22,248,22,148" style="stroke: #000000; stroke-width: 2.0;"/>
        <line style="stroke: #000000; stroke-width: 2.0;" x1="22" x2="98" y1="170.4883" y2="170.4883"/>
        <text fill="#000000" font-family="sans-serif" font-size="14" font-weight="bold" lengthAdjust="spacingAndGlyphs" textLength="63" x="25" y="164.5352">java.lang</text>
        <polygon fill="#FFFFFF" filter="url(#f1)" points="455,24,554,24,561,46.4883,1477,46.4883,1477,124,455,124,455,24" style="stroke: #000000; stroke-width: 2.0;"/>
        <line style="stroke: #000000; stroke-width: 2.0;" x1="455" x2="561" y1="46.4883" y2="46.4883"/>
        <text fill="#000000" font-family="sans-serif" font-size="14" font-weight="bold" lengthAdjust="spacingAndGlyphs" textLength="93" x="458" y="40.5352">Masters_Proj</text>
        <polygon fill="#FFFFFF" filter="url(#f1)" points="1359,148,1423,148,1430,170.4883,1453,170.4883,1453,248,1359,248,1359,148" style="stroke: #000000; stroke-width: 2.0;"/>
        <line style="stroke: #000000; stroke-width: 2.0;" x1="1359" x2="1430" y1="170.4883" y2="170.4883"/>
        <text fill="#000000" font-family="sans-serif" font-size="14" font-weight="bold" lengthAdjust="spacingAndGlyphs" textLength="58" x="1362" y="164.5352">java.awt</text>
        <polygon fill="#FFFFFF" filter="url(#f1)" points="333,148,444,148,451,170.4883,481,170.4883,481,248,333,248,333,148" style="stroke: #000000; stroke-width: 2.0;"/>
        <line style="stroke: #000000; stroke-width: 2.0;" x1="333" x2="451" y1="170.4883" y2="170.4883"/>
        <text fill="#000000" font-family="sans-serif" font-size="14" font-weight="bold" lengthAdjust="spacingAndGlyphs" textLength="105" x="336" y="164.5352">java.awt.image</text>
        <polygon fill="#FFFFFF" filter="url(#f1)" points="505,148,557,148,564,170.4883,724,170.4883,724,248,505,248,505,148" style="stroke: #000000; stroke-width: 2.0;"/>
        <line style="stroke: #000000; stroke-width: 2.0;" x1="505" x2="564" y1="170.4883" y2="170.4883"/>
        <text fill="#000000" font-family="sans-serif" font-size="14" font-weight="bold" lengthAdjust="spacingAndGlyphs" textLength="46" x="508" y="164.5352">java.io</text>
        <polygon fill="#FFFFFF" filter="url(#f1)" points="1477,148,1540,148,1547,170.4883,1694,170.4883,1694,248,1477,248,1477,148" style="stroke: #000000; stroke-width: 2.0;"/>
        <line style="stroke: #000000; stroke-width: 2.0;" x1="1477" x2="1547" y1="170.4883" y2="170.4883"/>
        <text fill="#000000" font-family="sans-serif" font-size="14" font-weight="bold" lengthAdjust="spacingAndGlyphs" textLength="57" x="1480" y="164.5352">java.util</text>
        <polygon fill="#FFFFFF" filter="url(#f1)" points="748,148,852,148,859,170.4883,863,170.4883,863,248,748,248,748,148" style="stroke: #000000; stroke-width: 2.0;"/>
        <line style="stroke: #000000; stroke-width: 2.0;" x1="748" x2="859" y1="170.4883" y2="170.4883"/>
        <text fill="#000000" font-family="sans-serif" font-size="14" font-weight="bold" lengthAdjust="spacingAndGlyphs" textLength="98" x="751" y="164.5352">javax.imageio</text>
        <polygon fill="#FFFFFF" filter="url(#f1)" points="887,148,976,148,983,170.4883,1128,170.4883,1128,248,887,248,887,148" style="stroke: #000000; stroke-width: 2.0;"/>
        <line style="stroke: #000000; stroke-width: 2.0;" x1="887" x2="983" y1="170.4883" y2="170.4883"/>
        <text fill="#000000" font-family="sans-serif" font-size="14" font-weight="bold" lengthAdjust="spacingAndGlyphs" textLength="83" x="890" y="164.5352">javax.swing</text>
        <polygon fill="#FFFFFF" filter="url(#f1)" points="1152,148,1324,148,1331,170.4883,1335,170.4883,1335,248,1152,248,1152,148" style="stroke: #000000; stroke-width: 2.0;"/>
        <line style="stroke: #000000; stroke-width: 2.0;" x1="1152" x2="1331" y1="170.4883" y2="170.4883"/>
        <text fill="#000000" font-family="sans-serif" font-size="14" font-weight="bold" lengthAdjust="spacingAndGlyphs" textLength="166" x="1155" y="164.5352">javax.swing.filechooser</text>
        <rect fill="#FEFECE" filter="url(#f1)" height="48" style="stroke: #A80036; stroke-width: 1.5;" width="82" x="211" y="184"/>
        <ellipse cx="226" cy="200" fill="#A9DCDF" rx="11" ry="11" style="stroke: #A80036; stroke-width: 1.0;"/>
        <path d="M228.0767,200.4761 Q228.0767,199.5381 227.6533,199.0068 Q227.23,198.4756 226.4912,198.4756 Q225.7524,198.4756 225.3333,199.0068 Q224.9141,199.5381 224.9141,200.4761 Q224.9141,201.4224 225.3333,201.9536 Q225.7524,202.4849 226.4912,202.4849 Q227.23,202.4849 227.6533,201.9536 Q228.0767,201.4224 228.0767,200.4761 Z M229.6206,203.8794 L227.9937,203.8794 L227.9937,203.1987 Q227.6782,203.6387 227.2507,203.842 Q226.8232,204.0454 226.2256,204.0454 Q224.8643,204.0454 224.03,203.0659 Q223.1958,202.0864 223.1958,200.4761 Q223.1958,198.874 224.0259,197.8987 Q224.856,196.9233 226.2256,196.9233 Q226.8149,196.9233 227.2632,197.1267 Q227.7114,197.3301 227.9937,197.7202 L227.9937,197.3799 Q227.9937,196.251 227.3752,195.6367 Q226.7568,195.0225 225.6113,195.0225 Q223.8848,195.0225 222.7932,196.5415 Q221.7017,198.0605 221.7017,200.4927 Q221.7017,203.041 222.9634,204.5476 Q224.2251,206.0542 226.3252,206.0542 Q226.9893,206.0542 227.6118,205.8591 Q228.2344,205.6641 228.8071,205.2739 L229.5708,206.7349 Q228.8984,207.1914 228.1057,207.4197 Q227.313,207.6479 226.4082,207.6479 Q223.5029,207.6479 221.7764,205.7139 Q220.0498,203.7798 220.0498,200.4927 Q220.0498,197.2803 221.6021,195.3503 Q223.1543,193.4204 225.7109,193.4204 Q227.5205,193.4204 228.5706,194.512 Q229.6206,195.6035 229.6206,197.4878 Z "/>
        <text fill="#000000" font-family="sans-serif" font-size="12" lengthAdjust="spacingAndGlyphs" textLength="50" x="240" y="204.5352">Override</text>
        <line style="stroke: #A80036; stroke-width: 1.5;" x1="212" x2="292" y1="216" y2="216"/>
        <line style="stroke: #A80036; stroke-width: 1.5;" x1="212" x2="292" y1="224" y2="224"/>
        <rect fill="#FEFECE" filter="url(#f1)" height="48" style="stroke: #A80036; stroke-width: 1.5;" width="137" x="38.75" y="184"/>
        <ellipse cx="53.75" cy="200" fill="#A9DCDF" rx="11" ry="11" style="stroke: #A80036; stroke-width: 1.0;"/>
        <path d="M55.8267,200.4761 Q55.8267,199.5381 55.4033,199.0068 Q54.98,198.4756 54.2412,198.4756 Q53.5024,198.4756 53.0833,199.0068 Q52.6641,199.5381 52.6641,200.4761 Q52.6641,201.4224 53.0833,201.9536 Q53.5024,202.4849 54.2412,202.4849 Q54.98,202.4849 55.4033,201.9536 Q55.8267,201.4224 55.8267,200.4761 Z M57.3706,203.8794 L55.7437,203.8794 L55.7437,203.1987 Q55.4282,203.6387 55.0007,203.842 Q54.5732,204.0454 53.9756,204.0454 Q52.6143,204.0454 51.78,203.0659 Q50.9458,202.0864 50.9458,200.4761 Q50.9458,198.874 51.7759,197.8987 Q52.606,196.9233 53.9756,196.9233 Q54.5649,196.9233 55.0132,197.1267 Q55.4614,197.3301 55.7437,197.7202 L55.7437,197.3799 Q55.7437,196.251 55.1252,195.6367 Q54.5068,195.0225 53.3613,195.0225 Q51.6348,195.0225 50.5432,196.5415 Q49.4517,198.0605 49.4517,200.4927 Q49.4517,203.041 50.7134,204.5476 Q51.9751,206.0542 54.0752,206.0542 Q54.7393,206.0542 55.3618,205.8591 Q55.9844,205.6641 56.5571,205.2739 L57.3208,206.7349 Q56.6484,207.1914 55.8557,207.4197 Q55.063,207.6479 54.1582,207.6479 Q51.2529,207.6479 49.5264,205.7139 Q47.7998,203.7798 47.7998,200.4927 Q47.7998,197.2803 49.3521,195.3503 Q50.9043,193.4204 53.4609,193.4204 Q55.2705,193.4204 56.3206,194.512 Q57.3706,195.6035 57.3706,197.4878 Z "/>
        <text fill="#000000" font-family="sans-serif" font-size="12" lengthAdjust="spacingAndGlyphs" textLength="105" x="67.75" y="204.5352">SuppressWarnings</text>
        <line style="stroke: #A80036; stroke-width: 1.5;" x1="39.75" x2="174.75" y1="216" y2="216"/>
        <line style="stroke: #A80036; stroke-width: 1.5;" x1="39.75" x2="174.75" y1="224" y2="224"/>
        <rect fill="#FEFECE" filter="url(#f1)" height="48" style="stroke: #A80036; stroke-width: 1.5;" width="112" x="602" y="60"/>
        <ellipse cx="617" cy="76" fill="#ADD1B2" rx="11" ry="11" style="stroke: #A80036; stroke-width: 1.0;"/>
        <path d="M619.9731,81.6431 Q619.3921,81.9419 618.7529,82.0913 Q618.1138,82.2407 617.4082,82.2407 Q614.9014,82.2407 613.5815,80.5889 Q612.2617,78.937 612.2617,75.8159 Q612.2617,72.6865 613.5815,71.0347 Q614.9014,69.3828 617.4082,69.3828 Q618.1138,69.3828 618.7612,69.5322 Q619.4087,69.6816 619.9731,69.9805 L619.9731,72.7031 Q619.3423,72.1221 618.7488,71.8523 Q618.1553,71.5825 617.5244,71.5825 Q616.1797,71.5825 615.4949,72.6492 Q614.8101,73.7158 614.8101,75.8159 Q614.8101,77.9077 615.4949,78.9744 Q616.1797,80.041 617.5244,80.041 Q618.1553,80.041 618.7488,79.7712 Q619.3423,79.5015 619.9731,78.9204 Z "/>
        <text fill="#000000" font-family="sans-serif" font-size="12" lengthAdjust="spacingAndGlyphs" textLength="80" x="631" y="80.5352">DecodeFrame</text>
        <line style="stroke: #A80036; stroke-width: 1.5;" x1="603" x2="713" y1="92" y2="92"/>
        <line style="stroke: #A80036; stroke-width: 1.5;" x1="603" x2="713" y1="100" y2="100"/>
        <rect fill="#FEFECE" filter="url(#f1)" height="48" style="stroke: #A80036; stroke-width: 1.5;" width="155" x="1067.75" y="60"/>
        <ellipse cx="1082.75" cy="76" fill="#ADD1B2" rx="11" ry="11" style="stroke: #A80036; stroke-width: 1.0;"/>
        <path d="M1085.7231,81.6431 Q1085.1421,81.9419 1084.5029,82.0913 Q1083.8638,82.2407 1083.1582,82.2407 Q1080.6514,82.2407 1079.3315,80.5889 Q1078.0117,78.937 1078.0117,75.8159 Q1078.0117,72.6865 1079.3315,71.0347 Q1080.6514,69.3828 1083.1582,69.3828 Q1083.8638,69.3828 1084.5112,69.5322 Q1085.1587,69.6816 1085.7231,69.9805 L1085.7231,72.7031 Q1085.0923,72.1221 1084.4988,71.8523 Q1083.9053,71.5825 1083.2744,71.5825 Q1081.9297,71.5825 1081.2449,72.6492 Q1080.5601,73.7158 1080.5601,75.8159 Q1080.5601,77.9077 1081.2449,78.9744 Q1081.9297,80.041 1083.2744,80.041 Q1083.9053,80.041 1084.4988,79.7712 Q1085.0923,79.5015 1085.7231,78.9204 Z "/>
        <text fill="#000000" font-family="sans-serif" font-size="12" lengthAdjust="spacingAndGlyphs" textLength="123" x="1096.75" y="80.5352">DirectoryCustomFilter</text>
        <line style="stroke: #A80036; stroke-width: 1.5;" x1="1068.75" x2="1221.75" y1="92" y2="92"/>
        <line style="stroke: #A80036; stroke-width: 1.5;" x1="1068.75" x2="1221.75" y1="100" y2="100"/>
        <rect fill="#FEFECE" filter="url(#f1)" height="48" style="stroke: #A80036; stroke-width: 1.5;" width="110" x="749" y="60"/>
        <ellipse cx="764" cy="76" fill="#ADD1B2" rx="11" ry="11" style="stroke: #A80036; stroke-width: 1.0;"/>
        <path d="M766.9731,81.6431 Q766.3921,81.9419 765.7529,82.0913 Q765.1138,82.2407 764.4082,82.2407 Q761.9014,82.2407 760.5815,80.5889 Q759.2617,78.937 759.2617,75.8159 Q759.2617,72.6865 760.5815,71.0347 Q761.9014,69.3828 764.4082,69.3828 Q765.1138,69.3828 765.7612,69.5322 Q766.4087,69.6816 766.9731,69.9805 L766.9731,72.7031 Q766.3423,72.1221 765.7488,71.8523 Q765.1553,71.5825 764.5244,71.5825 Q763.1797,71.5825 762.4949,72.6492 Q761.8101,73.7158 761.8101,75.8159 Q761.8101,77.9077 762.4949,78.9744 Q763.1797,80.041 764.5244,80.041 Q765.1553,80.041 765.7488,79.7712 Q766.3423,79.5015 766.9731,78.9204 Z "/>
        <text fill="#000000" font-family="sans-serif" font-size="12" lengthAdjust="spacingAndGlyphs" textLength="78" x="778" y="80.5352">EncodeFrame</text>
        <line style="stroke: #A80036; stroke-width: 1.5;" x1="750" x2="858" y1="92" y2="92"/>
        <line style="stroke: #A80036; stroke-width: 1.5;" x1="750" x2="858" y1="100" y2="100"/>
        <rect fill="#FEFECE" filter="url(#f1)" height="48" style="stroke: #A80036; stroke-width: 1.5;" width="109" x="1351.75" y="60"/>
        <ellipse cx="1366.75" cy="76" fill="#ADD1B2" rx="11" ry="11" style="stroke: #A80036; stroke-width: 1.0;"/>
        <path d="M1369.7231,81.6431 Q1369.1421,81.9419 1368.5029,82.0913 Q1367.8638,82.2407 1367.1582,82.2407 Q1364.6514,82.2407 1363.3315,80.5889 Q1362.0117,78.937 1362.0117,75.8159 Q1362.0117,72.6865 1363.3315,71.0347 Q1364.6514,69.3828 1367.1582,69.3828 Q1367.8638,69.3828 1368.5112,69.5322 Q1369.1587,69.6816 1369.7231,69.9805 L1369.7231,72.7031 Q1369.0923,72.1221 1368.4988,71.8523 Q1367.9053,71.5825 1367.2744,71.5825 Q1365.9297,71.5825 1365.2449,72.6492 Q1364.5601,73.7158 1364.5601,75.8159 Q1364.5601,77.9077 1365.2449,78.9744 Q1365.9297,80.041 1367.2744,80.041 Q1367.9053,80.041 1368.4988,79.7712 Q1369.0923,79.5015 1369.7231,78.9204 Z "/>
        <text fill="#000000" font-family="sans-serif" font-size="12" lengthAdjust="spacingAndGlyphs" textLength="77" x="1380.75" y="80.5352">ExtendedVCS</text>
        <line style="stroke: #A80036; stroke-width: 1.5;" x1="1352.75" x2="1459.75" y1="92" y2="92"/>
        <line style="stroke: #A80036; stroke-width: 1.5;" x1="1352.75" x2="1459.75" y1="100" y2="100"/>
        <rect fill="#FEFECE" filter="url(#f1)" height="48" style="stroke: #A80036; stroke-width: 1.5;" width="138" x="894" y="60"/>
        <ellipse cx="909" cy="76" fill="#ADD1B2" rx="11" ry="11" style="stroke: #A80036; stroke-width: 1.0;"/>
        <path d="M911.9731,81.6431 Q911.3921,81.9419 910.7529,82.0913 Q910.1138,82.2407 909.4082,82.2407 Q906.9014,82.2407 905.5815,80.5889 Q904.2617,78.937 904.2617,75.8159 Q904.2617,72.6865 905.5815,71.0347 Q906.9014,69.3828 909.4082,69.3828 Q910.1138,69.3828 910.7612,69.5322 Q911.4087,69.6816 911.9731,69.9805 L911.9731,72.7031 Q911.3423,72.1221 910.7488,71.8523 Q910.1553,71.5825 909.5244,71.5825 Q908.1797,71.5825 907.4949,72.6492 Q906.8101,73.7158 906.8101,75.8159 Q906.8101,77.9077 907.4949,78.9744 Q908.1797,80.041 909.5244,80.041 Q910.1553,80.041 910.7488,79.7712 Q911.3423,79.5015 911.9731,78.9204 Z "/>
        <text fill="#000000" font-family="sans-serif" font-size="12" lengthAdjust="spacingAndGlyphs" textLength="106" x="923" y="80.5352">ImageCustomFilter</text>
        <line style="stroke: #A80036; stroke-width: 1.5;" x1="895" x2="1031" y1="92" y2="92"/>
        <line style="stroke: #A80036; stroke-width: 1.5;" x1="895" x2="1031" y1="100" y2="100"/>
        <rect fill="#FEFECE" filter="url(#f1)" height="48" style="stroke: #A80036; stroke-width: 1.5;" width="95" x="471.75" y="60"/>
        <ellipse cx="486.75" cy="76" fill="#ADD1B2" rx="11" ry="11" style="stroke: #A80036; stroke-width: 1.0;"/>
        <path d="M489.7231,81.6431 Q489.1421,81.9419 488.5029,82.0913 Q487.8638,82.2407 487.1582,82.2407 Q484.6514,82.2407 483.3315,80.5889 Q482.0117,78.937 482.0117,75.8159 Q482.0117,72.6865 483.3315,71.0347 Q484.6514,69.3828 487.1582,69.3828 Q487.8638,69.3828 488.5112,69.5322 Q489.1587,69.6816 489.7231,69.9805 L489.7231,72.7031 Q489.0923,72.1221 488.4988,71.8523 Q487.9053,71.5825 487.2744,71.5825 Q485.9297,71.5825 485.2449,72.6492 Q484.5601,73.7158 484.5601,75.8159 Q484.5601,77.9077 485.2449,78.9744 Q485.9297,80.041 487.2744,80.041 Q487.9053,80.041 488.4988,79.7712 Q489.0923,79.5015 489.7231,78.9204 Z "/>
        <text fill="#000000" font-family="sans-serif" font-size="12" lengthAdjust="spacingAndGlyphs" textLength="63" x="500.75" y="80.5352">MainFrame</text>
        <line style="stroke: #A80036; stroke-width: 1.5;" x1="472.75" x2="565.75" y1="92" y2="92"/>
        <line style="stroke: #A80036; stroke-width: 1.5;" x1="472.75" x2="565.75" y1="100" y2="100"/>
        <rect fill="#FEFECE" filter="url(#f1)" height="48" style="stroke: #A80036; stroke-width: 1.5;" width="59" x="1257.75" y="60"/>
        <ellipse cx="1272.75" cy="76" fill="#ADD1B2" rx="11" ry="11" style="stroke: #A80036; stroke-width: 1.0;"/>
        <path d="M1275.7231,81.6431 Q1275.1421,81.9419 1274.5029,82.0913 Q1273.8638,82.2407 1273.1582,82.2407 Q1270.6514,82.2407 1269.3315,80.5889 Q1268.0117,78.937 1268.0117,75.8159 Q1268.0117,72.6865 1269.3315,71.0347 Q1270.6514,69.3828 1273.1582,69.3828 Q1273.8638,69.3828 1274.5112,69.5322 Q1275.1587,69.6816 1275.7231,69.9805 L1275.7231,72.7031 Q1275.0923,72.1221 1274.4988,71.8523 Q1273.9053,71.5825 1273.2744,71.5825 Q1271.9297,71.5825 1271.2449,72.6492 Q1270.5601,73.7158 1270.5601,75.8159 Q1270.5601,77.9077 1271.2449,78.9744 Q1271.9297,80.041 1273.2744,80.041 Q1273.9053,80.041 1274.4988,79.7712 Q1275.0923,79.5015 1275.7231,78.9204 Z "/>
        <text fill="#000000" font-family="sans-serif" font-size="12" lengthAdjust="spacingAndGlyphs" textLength="27" x="1286.75" y="80.5352">Pixel</text>
        <line style="stroke: #A80036; stroke-width: 1.5;" x1="1258.75" x2="1315.75" y1="92" y2="92"/>
        <line style="stroke: #A80036; stroke-width: 1.5;" x1="1258.75" x2="1315.75" y1="100" y2="100"/>
        <rect fill="#FEFECE" filter="url(#f1)" height="48" style="stroke: #A80036; stroke-width: 1.5;" width="62" x="1375" y="184"/>
        <ellipse cx="1390" cy="200" fill="#ADD1B2" rx="11" ry="11" style="stroke: #A80036; stroke-width: 1.0;"/>
        <path d="M1392.9731,205.6431 Q1392.3921,205.9419 1391.7529,206.0913 Q1391.1138,206.2407 1390.4082,206.2407 Q1387.9014,206.2407 1386.5815,204.5889 Q1385.2617,202.937 1385.2617,199.8159 Q1385.2617,196.6865 1386.5815,195.0347 Q1387.9014,193.3828 1390.4082,193.3828 Q1391.1138,193.3828 1391.7612,193.5322 Q1392.4087,193.6816 1392.9731,193.9805 L1392.9731,196.7031 Q1392.3423,196.1221 1391.7488,195.8523 Q1391.1553,195.5825 1390.5244,195.5825 Q1389.1797,195.5825 1388.4949,196.6492 Q1387.8101,197.7158 1387.8101,199.8159 Q1387.8101,201.9077 1388.4949,202.9744 Q1389.1797,204.041 1390.5244,204.041 Q1391.1553,204.041 1391.7488,203.7712 Q1392.3423,203.5015 1392.9731,202.9204 Z "/>
        <text fill="#000000" font-family="sans-serif" font-size="12" lengthAdjust="spacingAndGlyphs" textLength="30" x="1404" y="204.5352">Color</text>
        <line style="stroke: #A80036; stroke-width: 1.5;" x1="1376" x2="1436" y1="216" y2="216"/>
        <line style="stroke: #A80036; stroke-width: 1.5;" x1="1376" x2="1436" y1="224" y2="224"/>
        <rect fill="#FEFECE" filter="url(#f1)" height="48" style="stroke: #A80036; stroke-width: 1.5;" width="116" x="349" y="184"/>
        <ellipse cx="364" cy="200" fill="#ADD1B2" rx="11" ry="11" style="stroke: #A80036; stroke-width: 1.0;"/>
        <path d="M366.9731,205.6431 Q366.3921,205.9419 365.7529,206.0913 Q365.1138,206.2407 364.4082,206.2407 Q361.9014,206.2407 360.5815,204.5889 Q359.2617,202.937 359.2617,199.8159 Q359.2617,196.6865 360.5815,195.0347 Q361.9014,193.3828 364.4082,193.3828 Q365.1138,193.3828 365.7612,193.5322 Q366.4087,193.6816 366.9731,193.9805 L366.9731,196.7031 Q366.3423,196.1221 365.7488,195.8523 Q365.1553,195.5825 364.5244,195.5825 Q363.1797,195.5825 362.4949,196.6492 Q361.8101,197.7158 361.8101,199.8159 Q361.8101,201.9077 362.4949,202.9744 Q363.1797,204.041 364.5244,204.041 Q365.1553,204.041 365.7488,203.7712 Q366.3423,203.5015 366.9731,202.9204 Z "/>
        <text fill="#000000" font-family="sans-serif" font-size="12" lengthAdjust="spacingAndGlyphs" textLength="84" x="378" y="204.5352">BufferedImage</text>
        <line style="stroke: #A80036; stroke-width: 1.5;" x1="350" x2="464" y1="216" y2="216"/>
        <line style="stroke: #A80036; stroke-width: 1.5;" x1="350" x2="464" y1="224" y2="224"/>
        <rect fill="#FEFECE" filter="url(#f1)" height="48" style="stroke: #A80036; stroke-width: 1.5;" width="51" x="656.75" y="184"/>
        <ellipse cx="671.75" cy="200" fill="#ADD1B2" rx="11" ry="11" style="stroke: #A80036; stroke-width: 1.0;"/>
        <path d="M674.7231,205.6431 Q674.1421,205.9419 673.5029,206.0913 Q672.8638,206.2407 672.1582,206.2407 Q669.6514,206.2407 668.3315,204.5889 Q667.0117,202.937 667.0117,199.8159 Q667.0117,196.6865 668.3315,195.0347 Q669.6514,193.3828 672.1582,193.3828 Q672.8638,193.3828 673.5112,193.5322 Q674.1587,193.6816 674.7231,193.9805 L674.7231,196.7031 Q674.0923,196.1221 673.4988,195.8523 Q672.9053,195.5825 672.2744,195.5825 Q670.9297,195.5825 670.2449,196.6492 Q669.5601,197.7158 669.5601,199.8159 Q669.5601,201.9077 670.2449,202.9744 Q670.9297,204.041 672.2744,204.041 Q672.9053,204.041 673.4988,203.7712 Q674.0923,203.5015 674.7231,202.9204 Z "/>
        <text fill="#000000" font-family="sans-serif" font-size="12" lengthAdjust="spacingAndGlyphs" textLength="19" x="685.75" y="204.5352">File</text>
        <line style="stroke: #A80036; stroke-width: 1.5;" x1="657.75" x2="706.75" y1="216" y2="216"/>
        <line style="stroke: #A80036; stroke-width: 1.5;" x1="657.75" x2="706.75" y1="224" y2="224"/>
        <rect fill="#FEFECE" filter="url(#f1)" height="48" style="stroke: #A80036; stroke-width: 1.5;" width="100" x="521" y="184"/>
        <ellipse cx="536" cy="200" fill="#ADD1B2" rx="11" ry="11" style="stroke: #A80036; stroke-width: 1.0;"/>
        <path d="M538.9731,205.6431 Q538.3921,205.9419 537.7529,206.0913 Q537.1138,206.2407 536.4082,206.2407 Q533.9014,206.2407 532.5815,204.5889 Q531.2617,202.937 531.2617,199.8159 Q531.2617,196.6865 532.5815,195.0347 Q533.9014,193.3828 536.4082,193.3828 Q537.1138,193.3828 537.7612,193.5322 Q538.4087,193.6816 538.9731,193.9805 L538.9731,196.7031 Q538.3423,196.1221 537.7488,195.8523 Q537.1553,195.5825 536.5244,195.5825 Q535.1797,195.5825 534.4949,196.6492 Q533.8101,197.7158 533.8101,199.8159 Q533.8101,201.9077 534.4949,202.9744 Q535.1797,204.041 536.5244,204.041 Q537.1553,204.041 537.7488,203.7712 Q538.3423,203.5015 538.9731,202.9204 Z "/>
        <text fill="#000000" font-family="sans-serif" font-size="12" lengthAdjust="spacingAndGlyphs" textLength="68" x="550" y="204.5352">IOException</text>
        <line style="stroke: #A80036; stroke-width: 1.5;" x1="522" x2="620" y1="216" y2="216"/>
        <line style="stroke: #A80036; stroke-width: 1.5;" x1="522" x2="620" y1="224" y2="224"/>
        <rect fill="#FEFECE" filter="url(#f1)" height="48" style="stroke: #A80036; stroke-width: 1.5;" width="69" x="1608.75" y="184"/>
        <ellipse cx="1623.75" cy="200" fill="#ADD1B2" rx="11" ry="11" style="stroke: #A80036; stroke-width: 1.0;"/>
        <path d="M1626.7231,205.6431 Q1626.1421,205.9419 1625.5029,206.0913 Q1624.8638,206.2407 1624.1582,206.2407 Q1621.6514,206.2407 1620.3315,204.5889 Q1619.0117,202.937 1619.0117,199.8159 Q1619.0117,196.6865 1620.3315,195.0347 Q1621.6514,193.3828 1624.1582,193.3828 Q1624.8638,193.3828 1625.5112,193.5322 Q1626.1587,193.6816 1626.7231,193.9805 L1626.7231,196.7031 Q1626.0923,196.1221 1625.4988,195.8523 Q1624.9053,195.5825 1624.2744,195.5825 Q1622.9297,195.5825 1622.2449,196.6492 Q1621.5601,197.7158 1621.5601,199.8159 Q1621.5601,201.9077 1622.2449,202.9744 Q1622.9297,204.041 1624.2744,204.041 Q1624.9053,204.041 1625.4988,203.7712 Q1626.0923,203.5015 1626.7231,202.9204 Z "/>
        <text fill="#000000" font-family="sans-serif" font-size="12" lengthAdjust="spacingAndGlyphs" textLength="37" x="1637.75" y="204.5352">Arrays</text>
        <line style="stroke: #A80036; stroke-width: 1.5;" x1="1609.75" x2="1676.75" y1="216" y2="216"/>
        <line style="stroke: #A80036; stroke-width: 1.5;" x1="1609.75" x2="1676.75" y1="224" y2="224"/>
        <rect fill="#FEFECE" filter="url(#f1)" height="48" style="stroke: #A80036; stroke-width: 1.5;" width="80" x="1493" y="184"/>
        <ellipse cx="1508" cy="200" fill="#ADD1B2" rx="11" ry="11" style="stroke: #A80036; stroke-width: 1.0;"/>
        <path d="M1510.9731,205.6431 Q1510.3921,205.9419 1509.7529,206.0913 Q1509.1138,206.2407 1508.4082,206.2407 Q1505.9014,206.2407 1504.5815,204.5889 Q1503.2617,202.937 1503.2617,199.8159 Q1503.2617,196.6865 1504.5815,195.0347 Q1505.9014,193.3828 1508.4082,193.3828 Q1509.1138,193.3828 1509.7612,193.5322 Q1510.4087,193.6816 1510.9731,193.9805 L1510.9731,196.7031 Q1510.3423,196.1221 1509.7488,195.8523 Q1509.1553,195.5825 1508.5244,195.5825 Q1507.1797,195.5825 1506.4949,196.6492 Q1505.8101,197.7158 1505.8101,199.8159 Q1505.8101,201.9077 1506.4949,202.9744 Q1507.1797,204.041 1508.5244,204.041 Q1509.1553,204.041 1509.7488,203.7712 Q1510.3423,203.5015 1510.9731,202.9204 Z "/>
        <text fill="#000000" font-family="sans-serif" font-size="12" lengthAdjust="spacingAndGlyphs" textLength="48" x="1522" y="204.5352">Random</text>
        <line style="stroke: #A80036; stroke-width: 1.5;" x1="1494" x2="1572" y1="216" y2="216"/>
        <line style="stroke: #A80036; stroke-width: 1.5;" x1="1494" x2="1572" y1="224" y2="224"/>
        <rect fill="#FEFECE" filter="url(#f1)" height="48" style="stroke: #A80036; stroke-width: 1.5;" width="79" x="764.75" y="184"/>
        <ellipse cx="779.75" cy="200" fill="#ADD1B2" rx="11" ry="11" style="stroke: #A80036; stroke-width: 1.0;"/>
        <path d="M782.7231,205.6431 Q782.1421,205.9419 781.5029,206.0913 Q780.8638,206.2407 780.1582,206.2407 Q777.6514,206.2407 776.3315,204.5889 Q775.0117,202.937 775.0117,199.8159 Q775.0117,196.6865 776.3315,195.0347 Q777.6514,193.3828 780.1582,193.3828 Q780.8638,193.3828 781.5112,193.5322 Q782.1587,193.6816 782.7231,193.9805 L782.7231,196.7031 Q782.0923,196.1221 781.4988,195.8523 Q780.9053,195.5825 780.2744,195.5825 Q778.9297,195.5825 778.2449,196.6492 Q777.5601,197.7158 777.5601,199.8159 Q777.5601,201.9077 778.2449,202.9744 Q778.9297,204.041 780.2744,204.041 Q780.9053,204.041 781.4988,203.7712 Q782.0923,203.5015 782.7231,202.9204 Z "/>
        <text fill="#000000" font-family="sans-serif" font-size="12" lengthAdjust="spacingAndGlyphs" textLength="47" x="793.75" y="204.5352">ImageIO</text>
        <line style="stroke: #A80036; stroke-width: 1.5;" x1="765.75" x2="842.75" y1="216" y2="216"/>
        <line style="stroke: #A80036; stroke-width: 1.5;" x1="765.75" x2="842.75" y1="224" y2="224"/>
        <rect fill="#FEFECE" filter="url(#f1)" height="48" style="stroke: #A80036; stroke-width: 1.5;" width="102" x="1010" y="184"/>
        <ellipse cx="1025" cy="200" fill="#ADD1B2" rx="11" ry="11" style="stroke: #A80036; stroke-width: 1.0;"/>
        <path d="M1027.9731,205.6431 Q1027.3921,205.9419 1026.7529,206.0913 Q1026.1138,206.2407 1025.4082,206.2407 Q1022.9014,206.2407 1021.5815,204.5889 Q1020.2617,202.937 1020.2617,199.8159 Q1020.2617,196.6865 1021.5815,195.0347 Q1022.9014,193.3828 1025.4082,193.3828 Q1026.1138,193.3828 1026.7612,193.5322 Q1027.4087,193.6816 1027.9731,193.9805 L1027.9731,196.7031 Q1027.3423,196.1221 1026.7488,195.8523 Q1026.1553,195.5825 1025.5244,195.5825 Q1024.1797,195.5825 1023.4949,196.6492 Q1022.8101,197.7158 1022.8101,199.8159 Q1022.8101,201.9077 1023.4949,202.9744 Q1024.1797,204.041 1025.5244,204.041 Q1026.1553,204.041 1026.7488,203.7712 Q1027.3423,203.5015 1027.9731,202.9204 Z "/>
        <text fill="#000000" font-family="sans-serif" font-size="12" lengthAdjust="spacingAndGlyphs" textLength="70" x="1039" y="204.5352">JFileChooser</text>
        <line style="stroke: #A80036; stroke-width: 1.5;" x1="1011" x2="1111" y1="216" y2="216"/>
        <line style="stroke: #A80036; stroke-width: 1.5;" x1="1011" x2="1111" y1="224" y2="224"/>
        <rect fill="#FEFECE" filter="url(#f1)" height="48" style="stroke: #A80036; stroke-width: 1.5;" width="72" x="903" y="184"/>
        <ellipse cx="918" cy="200" fill="#ADD1B2" rx="11" ry="11" style="stroke: #A80036; stroke-width: 1.0;"/>
        <path d="M920.9731,205.6431 Q920.3921,205.9419 919.7529,206.0913 Q919.1138,206.2407 918.4082,206.2407 Q915.9014,206.2407 914.5815,204.5889 Q913.2617,202.937 913.2617,199.8159 Q913.2617,196.6865 914.5815,195.0347 Q915.9014,193.3828 918.4082,193.3828 Q919.1138,193.3828 919.7612,193.5322 Q920.4087,193.6816 920.9731,193.9805 L920.9731,196.7031 Q920.3423,196.1221 919.7488,195.8523 Q919.1553,195.5825 918.5244,195.5825 Q917.1797,195.5825 916.4949,196.6492 Q915.8101,197.7158 915.8101,199.8159 Q915.8101,201.9077 916.4949,202.9744 Q917.1797,204.041 918.5244,204.041 Q919.1553,204.041 919.7488,203.7712 Q920.3423,203.5015 920.9731,202.9204 Z "/>
        <text fill="#000000" font-family="sans-serif" font-size="12" lengthAdjust="spacingAndGlyphs" textLength="40" x="932" y="204.5352">JFrame</text>
        <line style="stroke: #A80036; stroke-width: 1.5;" x1="904" x2="974" y1="216" y2="216"/>
        <line style="stroke: #A80036; stroke-width: 1.5;" x1="904" x2="974" y1="224" y2="224"/>
        <rect fill="#FEFECE" filter="url(#f1)" height="48" style="stroke: #A80036; stroke-width: 1.5;" width="79" x="1168.75" y="184"/>
        <ellipse cx="1183.75" cy="200" fill="#ADD1B2" rx="11" ry="11" style="stroke: #A80036; stroke-width: 1.0;"/>
        <path d="M1186.7231,205.6431 Q1186.1421,205.9419 1185.5029,206.0913 Q1184.8638,206.2407 1184.1582,206.2407 Q1181.6514,206.2407 1180.3315,204.5889 Q1179.0117,202.937 1179.0117,199.8159 Q1179.0117,196.6865 1180.3315,195.0347 Q1181.6514,193.3828 1184.1582,193.3828 Q1184.8638,193.3828 1185.5112,193.5322 Q1186.1587,193.6816 1186.7231,193.9805 L1186.7231,196.7031 Q1186.0923,196.1221 1185.4988,195.8523 Q1184.9053,195.5825 1184.2744,195.5825 Q1182.9297,195.5825 1182.2449,196.6492 Q1181.5601,197.7158 1181.5601,199.8159 Q1181.5601,201.9077 1182.2449,202.9744 Q1182.9297,204.041 1184.2744,204.041 Q1184.9053,204.041 1185.4988,203.7712 Q1186.0923,203.5015 1186.7231,202.9204 Z "/>
        <text fill="#000000" font-family="sans-serif" font-size="12" lengthAdjust="spacingAndGlyphs" textLength="47" x="1197.75" y="204.5352">FileFilter</text>
        <line style="stroke: #A80036; stroke-width: 1.5;" x1="1169.75" x2="1246.75" y1="216" y2="216"/>
        <line style="stroke: #A80036; stroke-width: 1.5;" x1="1169.75" x2="1246.75" y1="224" y2="224"/>
        <path d="M629.159,108.209 C615.908,117.465 599.491,127.076 583,132 C541.469,144.4 233.844,125.498 193,140 C169.816,148.232 148.004,165.3775 132.147,180.2628 " fill="none" style="stroke: #A80036; stroke-width: 1.0; stroke-dasharray: 7.0,7.0;"/>
        <polygon fill="#A80036" points="128.247,183.9917,137.5169,180.6647,131.8615,180.5369,131.9893,174.8815,128.247,183.9917" style="stroke: #A80036; stroke-width: 1.0;"/>
        <path d="M628.24,108.064 C615.081,117.057 598.985,126.507 583,132 C550.043,143.325 537.724,128.02 505,140 C479.99,149.156 455.258,166.1411 436.896,180.7177 " fill="none" style="stroke: #A80036; stroke-width: 1.0; stroke-dasharray: 7.0,7.0;"/>
        <polygon fill="#A80036" points="432.842,183.9793,442.3617,181.4543,436.7377,180.8451,437.347,175.2212,432.842,183.9793" style="stroke: #A80036; stroke-width: 1.0;"/>
        <path d="M662.571,108.234 C666.524,128.332 672.252,157.446 676.464,178.8591 " fill="none" style="stroke: #A80036; stroke-width: 1.0; stroke-dasharray: 7.0,7.0;"/>
        <polygon fill="#A80036" points="677.446,183.8521,679.6334,174.2492,676.4808,178.9461,671.7839,175.7935,677.446,183.8521" style="stroke: #A80036; stroke-width: 1.0;"/>
        <path d="M641.431,108.234 C626.918,128.586 605.811,158.184 590.49,179.6685 " fill="none" style="stroke: #A80036; stroke-width: 1.0; stroke-dasharray: 7.0,7.0;"/>
        <polygon fill="#A80036" points="587.507,183.8521,595.9889,178.8463,590.4098,179.781,589.4751,174.2019,587.507,183.8521" style="stroke: #A80036; stroke-width: 1.0;"/>
        <path d="M685.952,108.268 C697.706,118.059 711.523,129.577 724,140 C739.885,153.271 757.527,168.0422 772.193,180.3309 " fill="none" style="stroke: #A80036; stroke-width: 1.0; stroke-dasharray: 7.0,7.0;"/>
        <polygon fill="#A80036" points="776.246,183.7278,771.9168,174.8814,772.4136,180.5164,766.7786,181.0132,776.246,183.7278" style="stroke: #A80036; stroke-width: 1.0;"/>
        <path d="M686.005,108.128 C698.891,117.368 714.878,126.99 731,132 C758.813,140.642 966.223,128.544 993,140 C1012.5,148.342 1029.5,165.086 1041.62,179.7474 " fill="none" style="stroke: #A80036; stroke-width: 1.0; stroke-dasharray: 7.0,7.0;"/>
        <polygon fill="#A80036" points="1044.91,183.8187,1042.379,174.3006,1041.7733,179.925,1036.149,179.3193,1044.91,183.8187" style="stroke: #A80036; stroke-width: 1.0;"/>
        <path d="M686.428,108.135 C699.267,117.256 715.102,126.785 731,132 C785.582,149.905 806.711,118.551 860,140 C876.422,146.61 891.896,158.043 904.722,169.6127 " fill="none" style="stroke: #A80036; stroke-width: 1.0;"/>
        <polygon fill="none" points="910.018,165.0007,919.425,183.9878,900.231,175.0112,910.018,165.0007" style="stroke: #A80036; stroke-width: 1.0;"/>
        <path d="M1108.12,108.074 C1091.1,117.427 1070.22,127.153 1050,132 C1011.26,141.287 370.405,126.298 333,140 C310.725,148.159 290.188,165.306 275.366,180.2101 " fill="none" style="stroke: #A80036; stroke-width: 1.0; stroke-dasharray: 7.0,7.0;"/>
        <polygon fill="#A80036" points="271.724,183.9441,280.8714,180.2937,275.215,180.3646,275.1441,174.7082,271.724,183.9441" style="stroke: #A80036; stroke-width: 1.0;"/>
        <path d="M1107.63,108.177 C1090.69,117.426 1070,127.042 1050,132 C1017.42,140.075 778.789,126.629 748,140 C728.835,148.323 712.338,165.0668 700.631,179.733 " fill="none" style="stroke: #A80036; stroke-width: 1.0; stroke-dasharray: 7.0,7.0;"/>
        <polygon fill="#A80036" points="697.458,183.8058,706.1456,179.1663,700.5317,179.8622,699.8358,174.2483,697.458,183.8058" style="stroke: #A80036; stroke-width: 1.0;"/>
        <path d="M1157,108.234 C1165.41,124.516 1176.87,146.715 1186.8,165.9431 " fill="none" style="stroke: #A80036; stroke-width: 1.0;"/>
        <polygon fill="none" points="1193.09,162.87,1196.05,183.8521,1180.65,169.2934,1193.09,162.87" style="stroke: #A80036; stroke-width: 1.0;"/>
        <path d="M776.376,108 C763.439,117.338 747.305,127.073 731,132 C673.771,149.293 249.395,120.155 193,140 C169.793,148.166 147.981,165.3131 132.13,180.2153 " fill="none" style="stroke: #A80036; stroke-width: 1.0; stroke-dasharray: 7.0,7.0;"/>
        <polygon fill="#A80036" points="128.232,183.9488,137.4992,180.6143,131.8437,180.4911,131.9669,174.8356,128.232,183.9488" style="stroke: #A80036; stroke-width: 1.0;"/>
        <path d="M775.983,108.091 C763.096,117.324 747.109,126.951 731,132 C683.046,147.029 552.741,124.31 505,140 C479.516,148.376 454.613,165.5535 436.287,180.4182 " fill="none" style="stroke: #A80036; stroke-width: 1.0; stroke-dasharray: 7.0,7.0;"/>
        <polygon fill="#A80036" points="432.245,183.7464,441.7359,181.1152,436.1055,180.5689,436.6518,174.9385,432.245,183.7464" style="stroke: #A80036; stroke-width: 1.0;"/>
        <path d="M780.209,108.196 C770.223,117.976 758.511,129.505 748,140 C734.807,153.174 720.252,167.9253 708.175,180.2262 " fill="none" style="stroke: #A80036; stroke-width: 1.0; stroke-dasharray: 7.0,7.0;"/>
        <polygon fill="#A80036" points="704.511,183.9606,713.6696,180.3385,708.013,180.3919,707.9596,174.7353,704.511,183.9606" style="stroke: #A80036; stroke-width: 1.0;"/>
        <path d="M775.161,108.191 C762.374,117.205 746.689,126.637 731,132 C692.163,145.276 676.266,122.802 639,140 C619.881,148.823 602.99,165.392 590.825,179.8445 " fill="none" style="stroke: #A80036; stroke-width: 1.0; stroke-dasharray: 7.0,7.0;"/>
        <polygon fill="#A80036" points="587.521,183.8565,596.3298,179.4514,590.6993,179.9967,590.1541,174.3661,587.521,183.8565" style="stroke: #A80036; stroke-width: 1.0;"/>
        <path d="M804,108.234 C804,128.247 804,157.2 804,178.5876 " fill="none" style="stroke: #A80036; stroke-width: 1.0; stroke-dasharray: 7.0,7.0;"/>
        <polygon fill="#A80036" points="804,183.8521,808,174.8521,804,178.8521,800,174.8521,804,183.8521" style="stroke: #A80036; stroke-width: 1.0;"/>
        <path d="M832.009,108.088 C844.666,117.201 860.289,126.736 876,132 C900.711,140.279 969.238,129.299 993,140 C1012.2,148.646 1029.09,165.2138 1041.24,179.7098 " fill="none" style="stroke: #A80036; stroke-width: 1.0; stroke-dasharray: 7.0,7.0;"/>
        <polygon fill="#A80036" points="1044.53,183.7352,1041.9252,174.2371,1041.3632,179.8659,1035.7343,179.3039,1044.53,183.7352" style="stroke: #A80036; stroke-width: 1.0;"/>
        <path d="M829.71,108.234 C849.134,125.788 876.169,150.219 898.49,170.3911 " fill="none" style="stroke: #A80036; stroke-width: 1.0;"/>
        <polygon fill="none" points="903.24,165.2489,913.385,183.8521,893.854,175.6359,903.24,165.2489" style="stroke: #A80036; stroke-width: 1.0;"/>
        <path d="M1406,108.234 C1406,128.247 1406,157.2 1406,178.5876 " fill="none" style="stroke: #A80036; stroke-width: 1.0; stroke-dasharray: 7.0,7.0;"/>
        <polygon fill="#A80036" points="1406,183.8521,1410,174.8521,1406,178.8521,1402,174.8521,1406,183.8521" style="stroke: #A80036; stroke-width: 1.0;"/>
        <path d="M1378.81,108.036 C1366.06,117.382 1350.14,127.112 1334,132 C1289.92,145.346 548.937,126.184 505,140 C479.227,148.104 454.153,165.4764 435.82,180.5 " fill="none" style="stroke: #A80036; stroke-width: 1.0; stroke-dasharray: 7.0,7.0;"/>
        <polygon fill="#A80036" points="431.778,183.8634,441.2544,181.1807,435.6212,180.6649,436.1369,175.0316,431.778,183.8634" style="stroke: #A80036; stroke-width: 1.0;"/>
        <path d="M1460.43,92.102 C1499.47,99.253 1551.87,113.233 1591,140 C1605.74,150.082 1618.19,165.6504 1627.2,179.2431 " fill="none" style="stroke: #A80036; stroke-width: 1.0; stroke-dasharray: 7.0,7.0;"/>
        <polygon fill="#A80036" points="1630.13,183.7663,1628.6036,174.0364,1627.4157,179.5672,1621.885,178.3793,1630.13,183.7663" style="stroke: #A80036; stroke-width: 1.0;"/>
        <path d="M1430.19,108.234 C1451.55,128.756 1482.7,158.678 1505.11,180.2039 " fill="none" style="stroke: #A80036; stroke-width: 1.0; stroke-dasharray: 7.0,7.0;"/>
        <polygon fill="#A80036" points="1508.9,183.8521,1505.1719,174.7361,1505.2909,180.3917,1499.6353,180.5107,1508.9,183.8521" style="stroke: #A80036; stroke-width: 1.0;"/>
        <path d="M929.46,108.031 C913.923,117.375 894.772,127.106 876,132 C846.806,139.611 361.311,129.572 333,140 C310.74,148.199 290.202,165.3452 275.377,180.239 " fill="none" style="stroke: #A80036; stroke-width: 1.0; stroke-dasharray: 7.0,7.0;"/>
        <polygon fill="#A80036" points="271.733,183.9702,280.8828,180.3259,275.2264,180.393,275.1593,174.7365,271.733,183.9702" style="stroke: #A80036; stroke-width: 1.0;"/>
        <path d="M928.517,108.106 C913.109,117.222 894.32,126.755 876,132 C848.601,139.845 773.933,128.18 748,140 C729.123,148.604 712.727,165.1711 700.998,179.6776 " fill="none" style="stroke: #A80036; stroke-width: 1.0; stroke-dasharray: 7.0,7.0;"/>
        <polygon fill="#A80036" points="697.816,183.7062,706.5341,179.1242,700.9157,179.783,700.2569,174.1646,697.816,183.7062" style="stroke: #A80036; stroke-width: 1.0;"/>
        <path d="M998.005,108.001 C1013.35,116.982 1031.95,126.442 1050,132 C1083.3,142.257 1095.9,126.439 1128,140 C1144.49,146.967 1160.17,158.538 1173.21,170.1219 " fill="none" style="stroke: #A80036; stroke-width: 1.0;"/>
        <polygon fill="none" points="1178.06,165.0703,1187.68,183.9483,1168.38,175.1923,1178.06,165.0703" style="stroke: #A80036; stroke-width: 1.0;"/>
        <path d="M471.592,85.792 C406.234,88.456 285.99,99.086 193,140 C171.12,149.627 149.897,166.0621 134.009,180.2449 " fill="none" style="stroke: #A80036; stroke-width: 1.0; stroke-dasharray: 7.0,7.0;"/>
        <polygon fill="#A80036" points="130.087,183.7967,139.4426,180.7189,133.7926,180.4399,134.0717,174.7899,130.087,183.7967" style="stroke: #A80036; stroke-width: 1.0;"/>
        <path d="M543.544,108.121 C554.945,117.359 569.232,126.983 584,132 C642.098,151.738 802.709,118.03 860,140 C876.713,146.409 892.371,157.962 905.27,169.6907 " fill="none" style="stroke: #A80036; stroke-width: 1.0;"/>
        <polygon fill="none" points="910.198,164.7201,919.518,183.7499,900.365,174.6857,910.198,164.7201" style="stroke: #A80036; stroke-width: 1.0;"/>
        <path d="M1309.66,108.234 C1329.68,128.756 1358.87,158.678 1379.86,180.2039 " fill="none" style="stroke: #A80036; stroke-width: 1.0; stroke-dasharray: 7.0,7.0;"/>
        <polygon fill="#A80036" points="1383.42,183.8521,1379.989,174.6202,1379.9248,180.2767,1374.2683,180.2125,1383.42,183.8521" style="stroke: #A80036; stroke-width: 1.0;"/>
    </g>
</svg>
