<?xml version="1.0" encoding="UTF-8"?><svg xmlns="http://www.w3.org/2000/svg" xmlns:xlink="http://www.w3.org/1999/xlink" height="455pt" style="width:534px;height:455px;" version="1.1" viewBox="0 0 534 455" width="534pt">
    <defs>
        <filter height="300%" id="f1" width="300%" x="-1" y="-1">
            <feGaussianBlur result="blurOut" stdDeviation="2.0"/>
            <feColorMatrix in="blurOut" result="blurOut2" type="matrix" values="0 0 0 0 0 0 0 0 0 0 0 0 0 0 0 0 0 0 .4 0"/>
            <feOffset dx="4.0" dy="4.0" in="blurOut2" result="blurOut3"/>
            <feBlend in="SourceGraphic" in2="blurOut3" mode="normal"/>
        </filter>
    </defs>
    <g>
        <polygon fill="#FFFFFF" filter="url(#f1)" points="22,24,121,24,128,46.4883,527,46.4883,527,448,22,448,22,24" style="stroke: #000000; stroke-width: 2.0;"/>
        <line style="stroke: #000000; stroke-width: 2.0;" x1="22" x2="128" y1="46.4883" y2="46.4883"/>
        <text fill="#000000" font-family="sans-serif" font-size="14" font-weight="bold" lengthAdjust="spacingAndGlyphs" textLength="93" x="25" y="40.5352">Masters_Proj</text>
        <rect fill="#FEFECE" filter="url(#f1)" height="48" style="stroke: #A80036; stroke-width: 1.5;" width="112" x="160" y="168"/>
        <ellipse cx="175" cy="184" fill="#ADD1B2" rx="11" ry="11" style="stroke: #A80036; stroke-width: 1.0;"/>
        <path d="M177.9731,189.6431 Q177.3921,189.9419 176.7529,190.0913 Q176.1138,190.2407 175.4082,190.2407 Q172.9014,190.2407 171.5815,188.5889 Q170.2617,186.937 170.2617,183.8159 Q170.2617,180.6865 171.5815,179.0347 Q172.9014,177.3828 175.4082,177.3828 Q176.1138,177.3828 176.7612,177.5322 Q177.4087,177.6816 177.9731,177.9805 L177.9731,180.7031 Q177.3423,180.1221 176.7488,179.8523 Q176.1553,179.5825 175.5244,179.5825 Q174.1797,179.5825 173.4949,180.6492 Q172.8101,181.7158 172.8101,183.8159 Q172.8101,185.9077 173.4949,186.9744 Q174.1797,188.041 175.5244,188.041 Q176.1553,188.041 176.7488,187.7712 Q177.3423,187.5015 177.9731,186.9204 Z "/>
        <text fill="#000000" font-family="sans-serif" font-size="12" lengthAdjust="spacingAndGlyphs" textLength="80" x="189" y="188.5352">DecodeFrame</text>
        <line style="stroke: #A80036; stroke-width: 1.5;" x1="161" x2="271" y1="200" y2="200"/>
        <line style="stroke: #A80036; stroke-width: 1.5;" x1="161" x2="271" y1="208" y2="208"/>
        <rect fill="#FEFECE" filter="url(#f1)" height="48" style="stroke: #A80036; stroke-width: 1.5;" width="155" x="211.75" y="276"/>
        <ellipse cx="226.75" cy="292" fill="#ADD1B2" rx="11" ry="11" style="stroke: #A80036; stroke-width: 1.0;"/>
        <path d="M229.7231,297.6431 Q229.1421,297.9419 228.5029,298.0913 Q227.8638,298.2407 227.1582,298.2407 Q224.6514,298.2407 223.3315,296.5889 Q222.0117,294.937 222.0117,291.8159 Q222.0117,288.6865 223.3315,287.0347 Q224.6514,285.3828 227.1582,285.3828 Q227.8638,285.3828 228.5112,285.5322 Q229.1587,285.6816 229.7231,285.9805 L229.7231,288.7031 Q229.0923,288.1221 228.4988,287.8523 Q227.9053,287.5825 227.2744,287.5825 Q225.9297,287.5825 225.2449,288.6492 Q224.5601,289.7158 224.5601,291.8159 Q224.5601,293.9077 225.2449,294.9744 Q225.9297,296.041 227.2744,296.041 Q227.9053,296.041 228.4988,295.7712 Q229.0923,295.5015 229.7231,294.9204 Z "/>
        <text fill="#000000" font-family="sans-serif" font-size="12" lengthAdjust="spacingAndGlyphs" textLength="123" x="240.75" y="296.5352">DirectoryCustomFilter</text>
        <line style="stroke: #A80036; stroke-width: 1.5;" x1="212.75" x2="365.75" y1="308" y2="308"/>
        <line style="stroke: #A80036; stroke-width: 1.5;" x1="212.75" x2="365.75" y1="316" y2="316"/>
        <rect fill="#FEFECE" filter="url(#f1)" height="48" style="stroke: #A80036; stroke-width: 1.5;" width="110" x="307" y="168"/>
        <ellipse cx="322" cy="184" fill="#ADD1B2" rx="11" ry="11" style="stroke: #A80036; stroke-width: 1.0;"/>
        <path d="M324.9731,189.6431 Q324.3921,189.9419 323.7529,190.0913 Q323.1138,190.2407 322.4082,190.2407 Q319.9014,190.2407 318.5815,188.5889 Q317.2617,186.937 317.2617,183.8159 Q317.2617,180.6865 318.5815,179.0347 Q319.9014,177.3828 322.4082,177.3828 Q323.1138,177.3828 323.7612,177.5322 Q324.4087,177.6816 324.9731,177.9805 L324.9731,180.7031 Q324.3423,180.1221 323.7488,179.8523 Q323.1553,179.5825 322.5244,179.5825 Q321.1797,179.5825 320.4949,180.6492 Q319.8101,181.7158 319.8101,183.8159 Q319.8101,185.9077 320.4949,186.9744 Q321.1797,188.041 322.5244,188.041 Q323.1553,188.041 323.7488,187.7712 Q324.3423,187.5015 324.9731,186.9204 Z "/>
        <text fill="#000000" font-family="sans-serif" font-size="12" lengthAdjust="spacingAndGlyphs" textLength="78" x="336" y="188.5352">EncodeFrame</text>
        <line style="stroke: #A80036; stroke-width: 1.5;" x1="308" x2="416" y1="200" y2="200"/>
        <line style="stroke: #A80036; stroke-width: 1.5;" x1="308" x2="416" y1="208" y2="208"/>
        <rect fill="#FEFECE" filter="url(#f1)" height="48" style="stroke: #A80036; stroke-width: 1.5;" width="109" x="401.75" y="276"/>
        <ellipse cx="416.75" cy="292" fill="#ADD1B2" rx="11" ry="11" style="stroke: #A80036; stroke-width: 1.0;"/>
        <path d="M419.7231,297.6431 Q419.1421,297.9419 418.5029,298.0913 Q417.8638,298.2407 417.1582,298.2407 Q414.6514,298.2407 413.3315,296.5889 Q412.0117,294.937 412.0117,291.8159 Q412.0117,288.6865 413.3315,287.0347 Q414.6514,285.3828 417.1582,285.3828 Q417.8638,285.3828 418.5112,285.5322 Q419.1587,285.6816 419.7231,285.9805 L419.7231,288.7031 Q419.0923,288.1221 418.4988,287.8523 Q417.9053,287.5825 417.2744,287.5825 Q415.9297,287.5825 415.2449,288.6492 Q414.5601,289.7158 414.5601,291.8159 Q414.5601,293.9077 415.2449,294.9744 Q415.9297,296.041 417.2744,296.041 Q417.9053,296.041 418.4988,295.7712 Q419.0923,295.5015 419.7231,294.9204 Z "/>
        <text fill="#000000" font-family="sans-serif" font-size="12" lengthAdjust="spacingAndGlyphs" textLength="77" x="430.75" y="296.5352">ExtendedVCS</text>
        <line style="stroke: #A80036; stroke-width: 1.5;" x1="402.75" x2="509.75" y1="308" y2="308"/>
        <line style="stroke: #A80036; stroke-width: 1.5;" x1="402.75" x2="509.75" y1="316" y2="316"/>
        <rect fill="#FEFECE" filter="url(#f1)" height="48" style="stroke: #A80036; stroke-width: 1.5;" width="138" x="38" y="276"/>
        <ellipse cx="53" cy="292" fill="#ADD1B2" rx="11" ry="11" style="stroke: #A80036; stroke-width: 1.0;"/>
        <path d="M55.9731,297.6431 Q55.3921,297.9419 54.7529,298.0913 Q54.1138,298.2407 53.4082,298.2407 Q50.9014,298.2407 49.5815,296.5889 Q48.2617,294.937 48.2617,291.8159 Q48.2617,288.6865 49.5815,287.0347 Q50.9014,285.3828 53.4082,285.3828 Q54.1138,285.3828 54.7612,285.5322 Q55.4087,285.6816 55.9731,285.9805 L55.9731,288.7031 Q55.3423,288.1221 54.7488,287.8523 Q54.1553,287.5825 53.5244,287.5825 Q52.1797,287.5825 51.4949,288.6492 Q50.8101,289.7158 50.8101,291.8159 Q50.8101,293.9077 51.4949,294.9744 Q52.1797,296.041 53.5244,296.041 Q54.1553,296.041 54.7488,295.7712 Q55.3423,295.5015 55.9731,294.9204 Z "/>
        <text fill="#000000" font-family="sans-serif" font-size="12" lengthAdjust="spacingAndGlyphs" textLength="106" x="67" y="296.5352">ImageCustomFilter</text>
        <line style="stroke: #A80036; stroke-width: 1.5;" x1="39" x2="175" y1="308" y2="308"/>
        <line style="stroke: #A80036; stroke-width: 1.5;" x1="39" x2="175" y1="316" y2="316"/>
        <rect fill="#FEFECE" filter="url(#f1)" height="48" style="stroke: #A80036; stroke-width: 1.5;" width="95" x="241.75" y="60"/>
        <ellipse cx="256.75" cy="76" fill="#ADD1B2" rx="11" ry="11" style="stroke: #A80036; stroke-width: 1.0;"/>
        <path d="M259.7231,81.6431 Q259.1421,81.9419 258.5029,82.0913 Q257.8638,82.2407 257.1582,82.2407 Q254.6514,82.2407 253.3315,80.5889 Q252.0117,78.937 252.0117,75.8159 Q252.0117,72.6865 253.3315,71.0347 Q254.6514,69.3828 257.1582,69.3828 Q257.8638,69.3828 258.5112,69.5322 Q259.1587,69.6816 259.7231,69.9805 L259.7231,72.7031 Q259.0923,72.1221 258.4988,71.8523 Q257.9053,71.5825 257.2744,71.5825 Q255.9297,71.5825 255.2449,72.6492 Q254.5601,73.7158 254.5601,75.8159 Q254.5601,77.9077 255.2449,78.9744 Q255.9297,80.041 257.2744,80.041 Q257.9053,80.041 258.4988,79.7712 Q259.0923,79.5015 259.7231,78.9204 Z "/>
        <text fill="#000000" font-family="sans-serif" font-size="12" lengthAdjust="spacingAndGlyphs" textLength="63" x="270.75" y="80.5352">MainFrame</text>
        <line style="stroke: #A80036; stroke-width: 1.5;" x1="242.75" x2="335.75" y1="92" y2="92"/>
        <line style="stroke: #A80036; stroke-width: 1.5;" x1="242.75" x2="335.75" y1="100" y2="100"/>
        <rect fill="#FEFECE" filter="url(#f1)" height="48" style="stroke: #A80036; stroke-width: 1.5;" width="59" x="426.75" y="384"/>
        <ellipse cx="441.75" cy="400" fill="#ADD1B2" rx="11" ry="11" style="stroke: #A80036; stroke-width: 1.0;"/>
        <path d="M444.7231,405.6431 Q444.1421,405.9419 443.5029,406.0913 Q442.8638,406.2407 442.1582,406.2407 Q439.6514,406.2407 438.3315,404.5889 Q437.0117,402.937 437.0117,399.8159 Q437.0117,396.6865 438.3315,395.0347 Q439.6514,393.3828 442.1582,393.3828 Q442.8638,393.3828 443.5112,393.5322 Q444.1587,393.6816 444.7231,393.9805 L444.7231,396.7031 Q444.0923,396.1221 443.4988,395.8523 Q442.9053,395.5825 442.2744,395.5825 Q440.9297,395.5825 440.2449,396.6492 Q439.5601,397.7158 439.5601,399.8159 Q439.5601,401.9077 440.2449,402.9744 Q440.9297,404.041 442.2744,404.041 Q442.9053,404.041 443.4988,403.7712 Q444.0923,403.5015 444.7231,402.9204 Z "/>
        <text fill="#000000" font-family="sans-serif" font-size="12" lengthAdjust="spacingAndGlyphs" textLength="27" x="455.75" y="404.5352">Pixel</text>
        <line style="stroke: #A80036; stroke-width: 1.5;" x1="427.75" x2="484.75" y1="416" y2="416"/>
        <line style="stroke: #A80036; stroke-width: 1.5;" x1="427.75" x2="484.75" y1="424" y2="424"/>
        <path d="M304.84,108 C316.051,124.279 331.138,146.187 342.998,163.408 " fill="none" style="stroke: #A80036; stroke-width: 1.0; stroke-dasharray: 7.0,7.0;"/>
        <polygon fill="#A80036" points="345.939,167.678,344.1281,157.997,343.1028,163.5602,337.5397,162.5349,345.939,167.678" style="stroke: #A80036; stroke-width: 1.0;"/>
        <path d="M273.16,108 C261.949,124.279 246.862,146.187 235.002,163.408 " fill="none" style="stroke: #A80036; stroke-width: 1.0; stroke-dasharray: 7.0,7.0;"/>
        <polygon fill="#A80036" points="232.061,167.678,240.4603,162.5349,234.8972,163.5602,233.8719,157.997,232.061,167.678" style="stroke: #A80036; stroke-width: 1.0;"/>
        <path d="M346.16,216 C334.949,232.279 319.862,254.187 308.002,271.408 " fill="none" style="stroke: #A80036; stroke-width: 1.0; stroke-dasharray: 7.0,7.0;"/>
        <polygon fill="#A80036" points="305.061,275.678,313.4603,270.5349,307.8972,271.5602,306.8719,265.997,305.061,275.678" style="stroke: #A80036; stroke-width: 1.0;"/>
        <path d="M306.983,215.87 C265.817,232.982 209.556,256.369 167.193,273.979 " fill="none" style="stroke: #A80036; stroke-width: 1.0; stroke-dasharray: 7.0,7.0;"/>
        <polygon fill="#A80036" points="162.358,275.988,172.204,276.2257,166.9747,274.0682,169.1323,268.8389,162.358,275.988" style="stroke: #A80036; stroke-width: 1.0;"/>
        <path d="M382.397,216 C396.955,232.417 416.59,254.559 431.919,271.844 " fill="none" style="stroke: #A80036; stroke-width: 1.0; stroke-dasharray: 7.0,7.0;"/>
        <polygon fill="#A80036" points="435.319,275.678,432.3376,266.2912,432.0005,271.938,426.3537,271.6009,435.319,275.678" style="stroke: #A80036; stroke-width: 1.0;"/>
        <path d="M231.84,216 C243.051,232.279 258.138,254.187 269.998,271.408 " fill="none" style="stroke: #A80036; stroke-width: 1.0; stroke-dasharray: 7.0,7.0;"/>
        <polygon fill="#A80036" points="272.939,275.678,271.1281,265.997,270.1028,271.5602,264.5397,270.5349,272.939,275.678" style="stroke: #A80036; stroke-width: 1.0;"/>
        <path d="M192.349,216 C175.468,232.417 152.699,254.559 134.924,271.844 " fill="none" style="stroke: #A80036; stroke-width: 1.0; stroke-dasharray: 7.0,7.0;"/>
        <polygon fill="#A80036" points="130.982,275.678,140.2228,272.271,134.5665,272.1921,134.6453,266.5358,130.982,275.678" style="stroke: #A80036; stroke-width: 1.0;"/>
        <path d="M268.076,216 C306.627,233.027 359.124,256.213 398.834,273.752 " fill="none" style="stroke: #A80036; stroke-width: 1.0; stroke-dasharray: 7.0,7.0;"/>
        <polygon fill="#A80036" points="403.611,275.862,396.9947,268.5665,399.0374,273.8417,393.7622,275.8843,403.611,275.862" style="stroke: #A80036; stroke-width: 1.0;"/>
        <path d="M456,324 C456,340.003 456,361.446 456,378.528 " fill="none" style="stroke: #A80036; stroke-width: 1.0; stroke-dasharray: 7.0,7.0;"/>
        <polygon fill="#A80036" points="456,383.6784,460,374.6784,456,378.6784,452,374.6784,456,383.6784" style="stroke: #A80036; stroke-width: 1.0;"/>
    </g>
</svg>
